# Blender 4.3.2
# www.blender.org
o transport_hull
v 66.766106 12.559109 -11.471784
v -36.565033 6.663391 -11.471784
v -39.392467 12.559109 -11.471784
v 58.072655 13.322452 -11.471784
v 66.766106 13.322452 -11.471784
v -70.173935 6.663391 -0.823537
v -70.375053 6.663391 -0.063666
v -74.824142 13.322452 -1.278178
v -74.638885 13.322452 -1.897617
v -66.724609 9.611250 6.668395
v -62.819183 12.559109 9.815474
v -67.555511 12.559109 8.133202
v -62.093140 6.663391 6.541142
v -57.995750 6.663391 7.795680
v -54.569130 6.663391 8.758171
v -48.223480 6.663391 10.105322
v -46.233421 6.663391 10.519756
v -60.495193 12.559109 10.194203
v 52.312813 6.663391 -10.774005
v 31.580881 6.663391 -11.471784
v 72.742531 12.559109 -11.124852
v -54.383980 13.322452 -10.789022
v -60.495193 13.322452 -2.463665
v -62.921227 13.322452 -9.942803
v -63.434021 13.322452 -9.781622
v -64.728951 13.322452 -9.374597
v -67.865524 13.322452 -8.260533
v 77.125755 13.322452 9.718603
v 77.739311 12.559109 9.539579
v 77.739311 13.322452 9.539579
v 77.739311 10.271722 7.617671
v 77.739311 8.351378 5.328970
v -69.444878 13.322452 -7.228414
v -72.185219 13.322452 -5.204772
v 72.742531 9.599774 9.070659
v 73.657845 12.559109 10.730457
v -61.785194 13.322452 -0.793665
v -60.990021 13.322452 -0.793665
v 58.072662 13.322452 11.344453
v 66.766106 13.322452 11.344453
v 77.739311 13.322452 -9.666911
v 77.125748 13.322452 -9.845933
v 72.742531 13.322452 -11.124852
v -58.956161 13.322452 -10.572344
v 73.657845 13.239110 -10.857787
v 58.354271 6.663391 -10.261699
v 61.762856 6.663391 -9.794930
v 71.200142 6.663391 -6.559190
v -71.693512 12.559109 5.077442
v -70.123131 9.611250 4.158710
v -73.082321 13.322452 3.960410
v -69.444878 13.322452 7.101081
v -72.185219 13.322452 5.077442
v -72.053558 9.611250 -1.569884
v -69.200058 6.663391 -2.193812
v -70.123131 9.611250 -4.286041
v 77.739311 6.663391 -2.342661
v 77.739311 6.663391 2.215330
v 71.200142 6.663391 6.431859
v 61.762856 6.663391 9.667601
v 58.354271 6.663391 10.134369
v 52.312813 6.663391 10.646675
v 31.580881 6.663391 11.344453
v -36.565033 6.663391 11.344453
v -67.485535 6.663391 3.332592
v -70.173935 6.663391 0.696206
v -62.093140 6.663391 -6.668474
v -57.995750 6.663391 -7.923011
v -54.569130 6.663391 -8.885501
v 77.011192 6.663391 2.832918
v -46.233421 6.663391 -10.647086
v 72.742531 9.599774 -9.197989
v -54.304443 13.290286 -10.795106
v -58.171204 12.559109 -10.700265
v -60.495193 12.559109 -10.321534
v -62.819183 12.559109 -9.942803
v -67.555511 12.559109 -8.260533
v -73.082321 13.322452 -4.087741
v 77.739311 12.559109 -9.666911
v 73.657845 12.559109 -10.857787
v -71.693512 12.559109 -5.204772
v -75.145592 13.322452 -0.063666
v -66.724609 9.611250 -6.795726
v -67.485535 6.663391 -3.459923
v -74.824142 13.322452 1.150846
v -58.956161 13.322452 10.445013
v -54.383980 13.322452 10.661693
v -74.638885 13.322452 1.770285
v 72.742531 7.208646 6.472011
v 77.739311 6.856009 -2.869848
v -67.865524 13.322452 8.133202
v -69.200058 6.663391 2.066480
v 72.742531 13.322452 10.997521
v 77.739311 6.856009 2.742516
v -41.940643 12.559109 -11.367093
v 77.739311 8.351378 -5.456302
v 72.742531 7.208646 -6.599342
v -72.053558 9.611250 1.442552
v -48.223480 6.663391 -10.232652
v -64.728951 13.322452 9.247266
v -58.171204 12.559109 10.572934
v -62.921227 13.322452 9.815474
v -54.304443 13.290286 10.667776
v -39.392467 12.559109 11.344453
v 66.766106 12.559109 11.344453
v 72.742531 12.559109 10.997521
v 72.984612 12.559109 10.926887
v 77.739311 10.271722 -7.745002
v 77.011192 6.663391 -2.960249
v -41.940643 12.559109 11.239762
v -63.434021 13.322452 9.654292
v 73.657845 13.239110 10.730457
vn -0.0000 -0.0000 -1.0000
vn -0.7947 -0.5693 -0.2103
vn -0.7891 -0.5671 -0.2360
vn -0.2917 -0.4903 0.8213
vn -0.2904 -0.4917 0.8209
vn -0.2547 -0.4933 0.8317
vn -0.2368 -0.4826 0.8432
vn -0.1855 -0.4153 0.8906
vn -0.1525 -0.3173 0.9360
vn 0.0330 -0.1968 -0.9799
vn 0.0561 -0.2518 -0.9661
vn -0.0048 0.6127 -0.7903
vn -0.0000 1.0000 -0.0000
vn -0.1882 -0.4224 0.8866
vn 0.2801 -0.0000 0.9600
vn 1.0000 -0.0000 -0.0000
vn 0.2953 -0.6146 0.7315
vn 0.2375 -0.5300 0.8140
vn 0.2801 -0.0000 -0.9600
vn -0.0000 -1.0000 -0.0000
vn -0.5167 -0.4933 0.6997
vn -0.6899 -0.5234 0.5001
vn -0.5548 -0.3574 0.7513
vn -0.6783 -0.5545 -0.4821
vn 0.1881 -0.5359 -0.8231
vn -0.0409 0.0871 -0.9954
vn -0.0470 0.1179 -0.9919
vn -0.1608 -0.0215 -0.9868
vn -0.1568 0.0043 -0.9876
vn -0.2996 -0.0401 -0.9532
vn -0.3316 -0.1347 -0.9337
vn -0.5340 -0.2169 -0.8172
vn -0.6899 -0.5234 -0.5001
vn -0.3914 -0.6434 -0.6579
vn 0.2270 -0.7142 0.6621
vn 0.2357 -0.7152 0.6580
vn -0.6931 -0.5263 -0.4926
vn -0.6967 -0.4488 0.5596
vn -0.4736 -0.6035 0.6414
vn -0.0409 0.0872 -0.9954
vn -0.1525 -0.3173 -0.9360
vn -0.5548 -0.3574 -0.7513
vn -0.0836 -0.1782 -0.9804
vn -0.0410 -0.0197 -0.9990
vn 0.2357 -0.7152 -0.6580
vn 0.2270 -0.7142 -0.6621
vn -0.6931 -0.5263 0.4926
vn -0.1855 -0.4154 -0.8906
vn -0.2368 -0.4826 -0.8432
vn -0.2547 -0.4933 -0.8317
vn -0.1882 -0.4224 -0.8866
vn -0.2904 -0.4917 -0.8209
vn -0.7765 -0.5655 -0.2779
vn -0.7891 -0.5671 0.2360
vn -0.7947 -0.5693 0.2103
vn -0.6783 -0.5545 0.4821
vn -0.7765 -0.5655 0.2779
vn -0.5340 -0.2169 0.8172
vn -0.3316 -0.1347 0.9337
vn -0.0470 0.1179 0.9919
vn -0.1568 0.0043 0.9876
vn -0.1608 -0.0215 0.9868
vn -0.0409 0.0872 0.9954
vn -0.0048 0.6127 0.7903
vn -0.0000 -0.0000 1.0000
vn 0.0797 -0.3321 0.9399
vn 0.2953 -0.6146 -0.7315
vn 0.2375 -0.5300 -0.8140
vn 0.2850 -0.8402 -0.4613
vn 0.2802 -0.8467 -0.4523
vn -0.0836 -0.1782 0.9804
vn -0.0410 -0.0197 0.9990
vn 0.0561 -0.2518 0.9661
vn 0.3067 -0.7291 0.6118
vn 0.1881 -0.5359 0.8231
vn 0.2795 -0.9018 -0.3295
vn 0.2850 -0.8402 0.4613
vn 0.2983 -0.8263 0.4777
vn 0.2795 -0.9018 0.3295
vn 0.2802 -0.8467 0.4523
vn -0.5167 -0.4933 -0.6997
vn 0.0580 -0.0000 -0.9983
vn -0.4736 -0.6035 -0.6414
vn -0.3914 -0.6434 0.6579
vn 0.1225 -0.4299 -0.8945
vn 0.0797 -0.3321 -0.9399
vn 0.3067 -0.7291 -0.6118
vn 0.2837 -0.7056 -0.6493
vn -0.2917 -0.4903 -0.8213
vn -0.3317 -0.1347 0.9337
vn -0.2996 -0.0401 0.9532
vn 0.2837 -0.7056 0.6493
vn 0.2983 -0.8263 -0.4777
vn 0.0330 -0.1968 0.9799
vn -0.6967 -0.4488 -0.5596
vn 0.1225 -0.4299 0.8945
vn 0.0580 -0.0000 0.9983
s 0
f 1//1 2//1 3//1
f 1//1 4//1 5//1
f 6//2 7//2 8//2
f 6//3 8//3 9//3
f 10//4 11//4 12//4
f 10//5 13//5 11//5
f 13//6 14//6 11//6
f 14//7 15//7 11//7
f 16//8 17//8 11//8
f 17//9 18//9 11//9
f 19//10 20//10 1//10
f 21//11 19//11 1//11
f 3//12 22//12 4//12
f 22//13 23//13 4//13
f 24//13 25//13 23//13
f 25//13 26//13 23//13
f 26//13 27//13 23//13
f 15//14 16//14 11//14
f 28//15 29//15 30//15
f 29//16 31//16 32//16
f 33//13 34//13 23//13
f 35//17 31//17 29//17
f 35//18 29//18 36//18
f 37//13 38//13 23//13
f 39//13 40//13 38//13
f 41//13 42//13 23//13
f 42//13 43//13 23//13
f 22//13 44//13 23//13
f 44//13 24//13 23//13
f 42//19 45//19 43//19
f 46//20 47//20 48//20
f 10//21 49//21 50//21
f 50//22 49//22 51//22
f 49//23 52//23 53//23
f 54//24 55//24 6//24
f 55//24 54//24 56//24
f 46//20 57//20 58//20
f 46//20 59//20 60//20
f 46//20 60//20 61//20
f 46//20 61//20 62//20
f 46//20 63//20 64//20
f 46//20 64//20 17//20
f 46//20 16//20 15//20
f 46//20 17//20 16//20
f 46//20 62//20 63//20
f 46//20 14//20 13//20
f 46//20 13//20 65//20
f 46//20 66//20 7//20
f 46//20 67//20 68//20
f 46//20 68//20 69//20
f 46//20 58//20 70//20
f 46//20 6//20 55//20
f 46//20 71//20 2//20
f 72//25 47//25 21//25
f 73//26 22//26 3//26
f 74//27 44//27 22//27
f 75//28 76//28 24//28
f 44//29 74//29 24//29
f 74//28 75//28 24//28
f 76//30 26//30 25//30
f 76//31 27//31 26//31
f 77//32 33//32 27//32
f 76//31 77//31 27//31
f 9//13 37//13 78//13
f 79//19 80//19 45//19
f 79//19 45//19 42//19
f 81//33 56//33 78//33
f 8//13 82//13 37//13
f 83//34 67//34 84//34
f 82//13 85//13 37//13
f 86//13 87//13 37//13
f 87//13 39//13 37//13
f 85//13 88//13 37//13
f 88//13 51//13 37//13
f 51//13 53//13 37//13
f 60//35 59//35 35//35
f 53//13 52//13 37//13
f 59//36 89//36 35//36
f 29//16 57//16 90//16
f 56//37 54//37 9//37
f 56//37 9//37 78//37
f 52//13 91//13 37//13
f 29//16 58//16 57//16
f 51//38 49//38 53//38
f 65//39 50//39 92//39
f 50//39 65//39 10//39
f 27//13 33//13 23//13
f 40//13 93//13 38//13
f 93//13 28//13 38//13
f 29//16 32//16 94//16
f 29//16 94//16 58//16
f 74//40 73//40 95//40
f 71//41 75//41 74//41
f 30//13 41//13 23//13
f 30//13 23//13 38//13
f 29//16 90//16 96//16
f 33//42 77//42 81//42
f 33//42 81//42 34//42
f 79//19 42//19 41//19
f 78//13 37//13 23//13
f 78//13 23//13 34//13
f 71//43 74//43 2//43
f 74//44 95//44 2//44
f 97//45 48//45 72//45
f 48//46 47//46 72//46
f 50//47 51//47 88//47
f 50//47 88//47 98//47
f 71//41 76//41 75//41
f 71//48 99//48 76//48
f 69//49 68//49 76//49
f 68//50 67//50 76//50
f 99//51 69//51 76//51
f 67//52 83//52 76//52
f 54//53 6//53 9//53
f 66//54 88//54 85//54
f 66//55 85//55 7//55
f 98//56 92//56 50//56
f 92//56 98//56 66//56
f 7//55 85//55 82//55
f 21//19 43//19 45//19
f 21//19 45//19 80//19
f 66//57 98//57 88//57
f 12//58 91//58 52//58
f 49//23 12//23 52//23
f 11//59 100//59 91//59
f 101//60 87//60 86//60
f 101//61 86//61 102//61
f 11//62 18//62 102//62
f 101//63 103//63 87//63
f 104//64 39//64 87//64
f 104//65 63//65 105//65
f 106//15 107//15 93//15
f 36//15 29//15 28//15
f 62//66 61//66 106//66
f 79//67 108//67 72//67
f 79//68 72//68 80//68
f 90//69 48//69 97//69
f 90//70 109//70 48//70
f 10//21 12//21 49//21
f 17//71 64//71 101//71
f 110//72 64//72 104//72
f 62//73 106//73 105//73
f 35//18 36//18 107//18
f 31//74 89//74 32//74
f 106//18 35//18 107//18
f 60//75 35//75 106//75
f 57//76 109//76 90//76
f 59//77 94//77 89//77
f 94//78 32//78 89//78
f 70//79 58//79 94//79
f 70//80 94//80 59//80
f 81//81 83//81 56//81
f 83//81 81//81 77//81
f 1//82 5//82 43//82
f 1//82 43//82 21//82
f 56//83 84//83 55//83
f 84//83 56//83 83//83
f 1//1 3//1 4//1
f 100//13 111//13 37//13
f 10//84 65//84 13//84
f 107//15 36//15 28//15
f 4//13 23//13 5//13
f 46//20 69//20 99//20
f 95//40 73//40 3//40
f 2//44 95//44 3//44
f 47//85 46//85 21//85
f 21//86 46//86 19//86
f 108//87 96//87 97//87
f 108//88 97//88 72//88
f 73//26 74//26 22//26
f 46//20 20//20 19//20
f 46//20 2//20 20//20
f 112//15 28//15 93//15
f 80//68 72//68 21//68
f 107//15 112//15 93//15
f 83//89 77//89 76//89
f 46//20 7//20 6//20
f 23//13 43//13 5//13
f 12//90 11//90 91//90
f 18//62 101//62 102//62
f 11//91 111//91 100//91
f 11//91 102//91 111//91
f 9//13 8//13 37//13
f 29//16 96//16 108//16
f 46//20 55//20 84//20
f 35//92 89//92 31//92
f 96//93 90//93 97//93
f 7//2 82//2 8//2
f 39//13 38//13 37//13
f 102//13 86//13 37//13
f 41//16 30//16 29//16
f 41//16 29//16 79//16
f 104//65 40//65 39//65
f 64//72 110//72 101//72
f 63//94 62//94 105//94
f 18//9 17//9 101//9
f 111//13 102//13 37//13
f 46//20 65//20 92//20
f 46//20 84//20 67//20
f 46//20 15//20 14//20
f 46//20 70//20 59//20
f 76//30 25//30 24//30
f 112//15 107//15 28//15
f 1//1 20//1 2//1
f 29//16 108//16 79//16
f 103//63 104//63 87//63
f 91//13 100//13 37//13
f 81//95 78//95 34//95
f 28//13 30//13 38//13
f 46//20 99//20 71//20
f 46//20 48//20 109//20
f 46//20 92//20 66//20
f 46//20 109//20 57//20
f 110//63 103//63 101//63
f 61//96 60//96 106//96
f 110//63 104//63 103//63
f 93//97 40//97 105//97
f 93//97 105//97 106//97
f 104//65 64//65 63//65
f 104//65 105//65 40//65
